<?xml version="1.0" encoding="UTF-8"?>
<svg width="248px" height="40px" viewBox="0 0 248 40" version="1.1" xmlns="http://www.w3.org/2000/svg" xmlns:xlink="http://www.w3.org/1999/xlink">
    <!-- Generator: Sketch 63.1 (92452) - https://sketch.com -->
    <title>蓝卓云</title>
    <desc>Created with Sketch.</desc>
    <g id="在线课堂" stroke="none" stroke-width="1" fill="none" fill-rule="evenodd">
        <g id="编组-12备份-4">
            <g id="编组" transform="translate(2.000000, 8.000000)">
                <path d="M106.542118,10.8000588 C107.117353,5.22047059 112.107471,1.16341176 117.687059,1.73864706 C121.506,2.13270588 124.610588,4.59476471 126.005647,7.898 C124.114941,10.0378235 121.720824,12.3322941 118.976,14.5646471 C116.169706,16.8461765 113.372471,18.7569412 110.847,20.1817647 C107.913882,18.139 106.149353,14.6073529 106.542118,10.8000588 Z M115.628118,8.503 C115.512941,8.20729412 114.961647,8.14582353 114.396765,8.36582353 C113.831882,8.58582353 113.467588,9.00447059 113.583412,9.30017647 C113.698588,9.59588235 114.249235,9.65735294 114.814765,9.43735294 C115.379,9.21670588 115.743294,8.79870588 115.628118,8.503 Z M118.883471,4.81929412 C118.610412,4.11852941 117.304,3.97294118 115.966529,4.49447059 C114.628412,5.016 113.765235,6.00664706 114.038294,6.70805882 C114.311353,7.40882353 115.617765,7.55441176 116.955882,7.03288235 C118.293353,6.51135294 119.156529,5.52070588 118.883471,4.81929412 Z" id="Fill-8" fill="#D92F28"></path>
                <path d="M121.638324,16.2449294 C118.917441,18.4565765 115.838088,19.8678118 113.355324,20.6436353 C112.963853,20.7659294 112.958029,21.3178706 113.346265,21.4505176 C114.215265,21.7481647 115.141853,21.9332235 116.1105,21.9856353 C121.232618,22.2625765 125.814441,18.5866353 126.661441,13.5272824 C126.789559,12.7650471 126.827735,12.0112235 126.786324,11.2748706 C126.763029,10.8581647 126.212382,10.7281059 125.997559,11.0859294 C124.934441,12.8556353 123.526441,14.7094588 121.638324,16.2449294" id="Fill-9" fill="#D92F28"></path>
                <path d="M120.253294,14.8765294 C114.015647,19.9475294 106.775059,22.2646471 105.389706,20.5609412 C104.665,19.6692941 105.397471,17.7397647 107.153588,15.3767059 C107.218294,15.5171176 107.649882,16.5252353 107.719765,16.6041765 C107.250647,17.5935294 107.156176,18.3738824 107.523706,18.8261765 C108.647647,20.2076471 114.409706,18.0710588 119.469059,13.959 C124.527118,9.84564706 126.359588,6.08752941 126.542059,4.31523529 C126.643647,3.33170588 126.248294,3.06382353 126.248294,3.06382353 C126.248294,3.06382353 126.547235,3.18935294 126.881765,3.60088235 C128.267118,5.30523529 126.490941,9.80552941 120.253294,14.8765294 L120.253294,14.8765294 Z M135.281882,8.305 C136.685353,6.70870588 139.194647,5.95164706 142.256529,5.95164706 C146.594412,5.95164706 148.911529,7.84364706 148.920588,11.1992941 L148.920588,21.6415294 L142.724353,21.6415294 L142.724353,12.1731176 C142.724353,10.0902353 141.703941,9.36035294 139.364824,9.36035294 C137.280647,9.36035294 135.664294,10.1717647 135.664294,12.1731176 L135.664294,21.6415294 L129.468706,21.6415294 L129.468706,6.22211765 L135.196471,6.22211765 L135.196471,8.305 L135.281882,8.305 Z M96.3716471,10.2798235 C97.0523529,7.35835294 99.1785882,5.87076471 102.580824,5.87076471 C103.218824,5.87076471 103.467941,5.89729412 104.105294,5.97882353 L104.105294,9.81976471 C103.467941,9.73888235 103.218824,9.71170588 102.580824,9.71170588 C99.4341765,9.71170588 97.5628824,10.2261176 97.5628824,13.3093529 L97.5628824,21.6415294 L91.3239412,21.6415294 L91.3239412,6.22211765 L96.3716471,6.22211765 L96.3716471,10.2798235 Z M83.809,16.4475882 C83.809,17.9351765 84.9148235,18.4489412 87.3393529,18.4489412 C88.1048235,18.4489412 88.396,18.3408824 88.8638235,18.2328235 L88.8638235,21.4791176 C87.5878235,21.7495882 86.2335294,21.912 84.6171765,21.912 C80.0237059,21.912 77.8256471,20.3972353 77.8256471,17.1781176 L77.8256471,9.46841176 L74.338,9.46841176 L74.338,6.22211765 L77.8256471,6.22211765 L77.8256471,4.16576471 L83.809,1.59629412 L83.809,6.22211765 L88.5234706,6.22211765 L88.5234706,9.46841176 L83.809,9.46841176 L83.809,16.4475882 Z M66.9201176,12.2002941 C66.8819412,10.0902353 65.2312941,8.87764706 63.3677647,8.87764706 C61.7701765,8.87764706 60.0127647,9.73888235 59.5941176,12.2002941 L66.9201176,12.2002941 Z M72.413,15.2841765 L59.5565882,15.2841765 C59.9370588,17.8542941 61.7125882,18.6378824 63.6259412,18.9568824 C65.1769412,19.2157059 67.5031176,19.2157059 68.7952941,17.4065294 L71.8429412,18.0167059 C70.0169412,21.1271176 66.9356471,21.912 63.2461176,21.912 C56.7037059,21.912 53.0141765,19.1522941 53.0141765,14.1751176 C53.0141765,8.65635294 57.1598824,5.95164706 62.7135882,5.95164706 C69.6364706,5.95164706 72.1548235,9.13582353 72.413,12.9308235 L72.413,15.2841765 Z M51.2535294,6.22211765 L51.2535294,21.6415294 L45.5251176,21.6415294 L45.5251176,19.558 L45.4403529,19.558 C44.0368824,21.1542941 41.5275882,21.912 38.4657059,21.912 C34.1271765,21.912 31.801,20.2613529 31.801,16.6637059 L31.801,6.22211765 L37.9972353,6.22211765 L37.9972353,15.6898824 C37.9972353,17.7727647 39.0182941,18.5032941 41.3574118,18.5032941 C43.4415882,18.5032941 45.0572941,17.6918824 45.0572941,15.6898824 L45.0572941,6.22211765 L51.2535294,6.22211765 Z M27.3427647,17.9112353 C27.3427647,18.7498235 27.7678824,19.1827059 29.0438824,19.1827059 C29.2140588,19.1827059 29.5117059,19.1827059 29.7666471,19.1283529 L29.7666471,21.6415294 C28.9584706,21.8039412 27.6831176,21.912 26.5345882,21.912 C22.8767647,21.912 21.1458824,21.0734118 21.1458824,18.1519412 L21.1458824,0 L27.3427647,0 L27.3427647,17.9112353 Z M6.35088235,12.1310588 C6.35088235,12.1310588 9.32347059,12.1232941 9.56805882,12.1071176 C10.3270588,12.1698824 11.0575882,12.4455294 11.6282941,12.8848824 C12.3510588,13.4394118 12.7483529,14.1796471 12.7483529,14.9690588 C12.7483529,15.7571765 12.3510588,16.4974118 11.6282941,17.0525882 C10.9644118,17.5637647 10.1109412,17.8445882 9.22511765,17.8445882 L6.35088235,17.8445882 L6.35088235,12.1310588 Z M9.28723529,8.02805882 L6.35088235,8.06558824 L6.35088235,4.06547059 L8.83882353,4.06547059 C10.131,4.06547059 11.2225882,4.98170588 11.2225882,6.06552941 C11.2225882,6.98823529 10.3762353,7.84235294 9.28723529,8.02805882 L9.28723529,8.02805882 Z M16.6190588,10.1109412 C16.4482353,9.97958824 16.2696471,9.85276471 16.0845882,9.73176471 C17.1412353,8.68547059 17.7138824,7.40882353 17.7138824,6.06552941 C17.7138824,4.466 16.9011765,2.96094118 15.4265294,1.82729412 C14.6934118,1.26370588 13.8321765,0.818529412 12.8667647,0.505352941 C11.8372941,0.169529412 10.7392353,0 9.60494118,0 L0,0 L0,21.912 L4.18711765,21.912 L9.99123529,21.9107059 C11.2795294,21.9107059 12.5264118,21.7172353 13.6969412,21.3367647 C14.7982353,20.9782941 15.7817647,20.4703529 16.6190588,19.8265294 C18.3091765,18.5278824 19.2396471,16.8021765 19.2396471,14.9690588 C19.2396471,13.1352941 18.3091765,11.4102353 16.6190588,10.1109412 L16.6190588,10.1109412 Z" id="Fill-11" fill="#005FE1"></path>
            </g>
            <text id="蓝卓云" font-family="MicrosoftYaHei, Microsoft YaHei" font-size="24" font-weight="normal" fill="#333333">
                <tspan x="173" y="28">蓝卓云</tspan>
            </text>
            <rect id="矩形" fill="#333333" x="161" y="8" width="2" height="22"></rect>
        </g>
    </g>
</svg>